<?xml version="1.0" encoding="UTF-8"?>
<svg id="Calque_1" data-name="Calque 1" xmlns="http://www.w3.org/2000/svg" width="8.76cm" height="6.35cm" viewBox="0 0 248.42 180.07">
  <defs>
    <style>
      .cls-1 {
        fill: #1d1d1b;
      }
    </style>
  </defs>
  <path class="cls-1" d="M121.45,.67l3.73,7.56c.17,.35,.51,.6,.9,.65l8.35,1.21c.98,.14,1.37,1.35,.66,2.04l-6.04,5.89c-.28,.27-.41,.67-.34,1.06l1.43,8.31c.17,.98-.86,1.72-1.73,1.26l-7.46-3.92c-.35-.18-.76-.18-1.11,0l-7.46,3.92c-.88,.46-1.9-.28-1.73-1.26l1.43-8.31c.07-.39-.06-.78-.34-1.06l-6.04-5.89c-.71-.69-.32-1.9,.66-2.04l8.35-1.21c.39-.06,.73-.3,.9-.65l3.73-7.56c.44-.89,1.71-.89,2.14,0Z"/>
  <path class="cls-1" d="M30.53,76.37c-6.29,0-11.71-1.26-16.28-3.8-4.57-2.53-8.08-6.15-10.55-10.86-2.47-4.71-3.7-10.29-3.7-16.76s1.23-12.13,3.7-16.85c2.47-4.72,5.99-8.35,10.55-10.9,4.57-2.54,9.99-3.82,16.28-3.82s11.74,1.27,16.3,3.82c4.55,2.54,8.07,6.18,10.53,10.9,2.47,4.72,3.7,10.34,3.7,16.85s-1.23,12.05-3.7,16.76c-2.47,4.71-5.98,8.33-10.53,10.86-4.56,2.53-9.99,3.8-16.3,3.8Zm0-13.17c2.85,0,5.04-1.55,6.56-4.66,1.53-3.1,2.29-7.67,2.29-13.7s-.76-10.6-2.29-13.7c-1.53-3.1-3.72-4.66-6.56-4.66s-5.04,1.55-6.56,4.66c-1.53,3.1-2.29,7.67-2.29,13.7s.76,10.6,2.29,13.7c1.53,3.1,3.71,4.66,6.56,4.66Z"/>
  <path class="cls-1" d="M66.71,75.26v-11.45h5.53v-17.52h-5.53v-10.42l23.47-2.25v7.82c1.5-2.77,3.57-4.8,6.22-6.07,2.65-1.27,5.18-1.91,7.6-1.91v16.41c-2.29-.79-4.39-1.18-6.3-1.18-1.27,0-2.61,.22-4.01,.67-1.4,.45-2.44,1.05-3.13,1.81v12.63h8.78v11.45h-32.63Z"/>
  <path class="cls-1" d="M108.01,75.26v-11.45h5.92v-17.52h-5.92v-10.42l24.24-2.25v30.19h5.92v11.45h-30.15Z"/>
  <path class="cls-1" d="M164.61,75.95c-4.78,0-8.91-.85-12.38-2.56-3.47-1.7-6.14-4.13-8.01-7.29-1.87-3.15-2.81-6.91-2.81-11.26s.94-8.14,2.81-11.3c1.87-3.15,4.54-5.59,8.01-7.31,3.47-1.72,7.6-2.58,12.38-2.58s8.91,.86,12.39,2.58c3.47,1.72,6.14,4.15,8.01,7.31,1.87,3.16,2.8,6.92,2.8,11.3s-.93,8.1-2.8,11.26c-1.87,3.16-4.54,5.59-8.01,7.29-3.47,1.71-7.6,2.56-12.39,2.56Zm0-11.11c3.44,0,5.15-3.35,5.15-10.04s-1.72-10.04-5.15-10.04-5.15,3.35-5.15,10.04,1.72,10.04,5.15,10.04Z"/>
  <path class="cls-1" d="M192.7,75.26v-11.45h5.53v-17.52h-5.53v-10.42l23.47-2.25v5.19c1.58-1.65,3.55-2.93,5.92-3.84,2.37-.9,4.91-1.35,7.63-1.35,4.6,0,7.98,1.3,10.13,3.91,2.15,2.61,3.23,6.53,3.23,11.77v14.5h5.34v11.45h-23.66v-25.95c0-1.48-.32-2.55-.95-3.23-.64-.67-1.48-1.01-2.52-1.01-.87,0-1.72,.25-2.58,.76-.85,.51-1.57,1.21-2.16,2.1v15.88h3.43v11.45h-27.29Z"/>
  <path class="cls-1" d="M76.71,179.02v-18.19H42.27v-17.66l35.61-43.74h25.61v42.5h13.95v18.84h-13.95v18.25h-26.78Zm-17.13-37.2l17.13,.06v-21.25l-17.13,21.19Z"/>
  <path class="cls-1" d="M150.87,180.07c-5.69,0-10.6-1.35-14.71-4.06-4.12-2.71-7.28-6.52-9.48-11.45-2.2-4.92-3.3-10.66-3.3-17.22s1.08-12.32,3.24-17.19c2.16-4.87,5.19-8.63,9.09-11.3,3.9-2.67,8.47-4,13.68-4,6.75,0,13.15,2.45,19.19,7.36v-15.13h-10.3v-16.07l38.55-3.83v74.17h8.24v17.66h-35.91v-6.59c-2.43,2.31-5.26,4.17-8.48,5.56-3.22,1.39-6.5,2.09-9.83,2.09Zm9.12-17.6c1.49,0,3.03-.23,4.62-.71s2.91-1.08,3.97-1.83v-24.78c-1.06-.78-2.38-1.43-3.97-1.94-1.59-.51-3.13-.77-4.62-.77-2.75,0-4.9,1.31-6.45,3.94-1.55,2.63-2.32,6.3-2.32,11.01s.77,8.4,2.32,11.07c1.55,2.67,3.7,4,6.45,4Z"/>
</svg>